<mxfile host="Electron" agent="Mozilla/5.0 (Windows NT 10.0; Win64; x64) AppleWebKit/537.36 (KHTML, like Gecko) draw.io/28.2.5 Chrome/138.0.7204.251 Electron/37.6.1 Safari/537.36" version="28.2.5">
  <diagram name="Page-1" id="N8F5lWXliNN_K6_hpMuP">
    <mxGraphModel dx="772" dy="501" grid="1" gridSize="10" guides="1" tooltips="1" connect="1" arrows="1" fold="1" page="1" pageScale="1" pageWidth="1100" pageHeight="1700" math="0" shadow="0">
      <root>
        <mxCell id="0" />
        <mxCell id="1" parent="0" />
        <mxCell id="n9XRfHGSxaaQDLkeZtz9-11" style="edgeStyle=orthogonalEdgeStyle;rounded=0;orthogonalLoop=1;jettySize=auto;html=1;exitX=0.5;exitY=1;exitDx=0;exitDy=0;entryX=0.5;entryY=0;entryDx=0;entryDy=0;" edge="1" parent="1" source="n9XRfHGSxaaQDLkeZtz9-1" target="n9XRfHGSxaaQDLkeZtz9-2">
          <mxGeometry relative="1" as="geometry" />
        </mxCell>
        <mxCell id="n9XRfHGSxaaQDLkeZtz9-1" value="Bắt đầu" style="ellipse;whiteSpace=wrap;html=1;" vertex="1" parent="1">
          <mxGeometry x="320" y="40" width="120" height="80" as="geometry" />
        </mxCell>
        <mxCell id="n9XRfHGSxaaQDLkeZtz9-12" style="edgeStyle=orthogonalEdgeStyle;rounded=0;orthogonalLoop=1;jettySize=auto;html=1;exitX=0.5;exitY=1;exitDx=0;exitDy=0;entryX=0.5;entryY=0;entryDx=0;entryDy=0;" edge="1" parent="1" source="n9XRfHGSxaaQDLkeZtz9-2" target="n9XRfHGSxaaQDLkeZtz9-4">
          <mxGeometry relative="1" as="geometry" />
        </mxCell>
        <mxCell id="n9XRfHGSxaaQDLkeZtz9-2" value="" style="shape=parallelogram;perimeter=parallelogramPerimeter;whiteSpace=wrap;html=1;fixedSize=1;" vertex="1" parent="1">
          <mxGeometry x="320" y="180" width="120" height="60" as="geometry" />
        </mxCell>
        <mxCell id="n9XRfHGSxaaQDLkeZtz9-3" value="Nhập 2 số number 1 và number 2 và phép tính op" style="text;html=1;align=center;verticalAlign=middle;whiteSpace=wrap;rounded=0;" vertex="1" parent="1">
          <mxGeometry x="330" y="195" width="100" height="30" as="geometry" />
        </mxCell>
        <mxCell id="n9XRfHGSxaaQDLkeZtz9-13" style="edgeStyle=orthogonalEdgeStyle;rounded=0;orthogonalLoop=1;jettySize=auto;html=1;exitX=0;exitY=0.5;exitDx=0;exitDy=0;entryX=0.5;entryY=0;entryDx=0;entryDy=0;" edge="1" parent="1" source="n9XRfHGSxaaQDLkeZtz9-4" target="n9XRfHGSxaaQDLkeZtz9-5">
          <mxGeometry relative="1" as="geometry" />
        </mxCell>
        <mxCell id="n9XRfHGSxaaQDLkeZtz9-37" value="có" style="edgeLabel;html=1;align=center;verticalAlign=middle;resizable=0;points=[];" vertex="1" connectable="0" parent="n9XRfHGSxaaQDLkeZtz9-13">
          <mxGeometry x="-0.181" y="-2" relative="1" as="geometry">
            <mxPoint as="offset" />
          </mxGeometry>
        </mxCell>
        <mxCell id="n9XRfHGSxaaQDLkeZtz9-14" style="edgeStyle=orthogonalEdgeStyle;rounded=0;orthogonalLoop=1;jettySize=auto;html=1;exitX=1;exitY=0.5;exitDx=0;exitDy=0;entryX=0.5;entryY=0;entryDx=0;entryDy=0;" edge="1" parent="1" source="n9XRfHGSxaaQDLkeZtz9-4" target="n9XRfHGSxaaQDLkeZtz9-7">
          <mxGeometry relative="1" as="geometry" />
        </mxCell>
        <mxCell id="n9XRfHGSxaaQDLkeZtz9-38" value="không" style="edgeLabel;html=1;align=center;verticalAlign=middle;resizable=0;points=[];" vertex="1" connectable="0" parent="n9XRfHGSxaaQDLkeZtz9-14">
          <mxGeometry x="-0.0667" y="-1" relative="1" as="geometry">
            <mxPoint as="offset" />
          </mxGeometry>
        </mxCell>
        <mxCell id="n9XRfHGSxaaQDLkeZtz9-4" value="op có phải + không ?" style="rhombus;whiteSpace=wrap;html=1;" vertex="1" parent="1">
          <mxGeometry x="320" y="280" width="120" height="80" as="geometry" />
        </mxCell>
        <mxCell id="n9XRfHGSxaaQDLkeZtz9-27" style="edgeStyle=orthogonalEdgeStyle;rounded=0;orthogonalLoop=1;jettySize=auto;html=1;exitX=0.5;exitY=1;exitDx=0;exitDy=0;entryX=0;entryY=1;entryDx=0;entryDy=0;" edge="1" parent="1" source="n9XRfHGSxaaQDLkeZtz9-5" target="n9XRfHGSxaaQDLkeZtz9-26">
          <mxGeometry relative="1" as="geometry" />
        </mxCell>
        <mxCell id="n9XRfHGSxaaQDLkeZtz9-5" value="number 1 + number 2" style="rounded=0;whiteSpace=wrap;html=1;" vertex="1" parent="1">
          <mxGeometry x="160" y="360" width="120" height="60" as="geometry" />
        </mxCell>
        <mxCell id="n9XRfHGSxaaQDLkeZtz9-6" value="number 1 - number 2" style="rounded=0;whiteSpace=wrap;html=1;" vertex="1" parent="1">
          <mxGeometry x="320" y="440" width="120" height="60" as="geometry" />
        </mxCell>
        <mxCell id="n9XRfHGSxaaQDLkeZtz9-15" style="edgeStyle=orthogonalEdgeStyle;rounded=0;orthogonalLoop=1;jettySize=auto;html=1;exitX=0;exitY=0.5;exitDx=0;exitDy=0;entryX=0.5;entryY=0;entryDx=0;entryDy=0;" edge="1" parent="1" source="n9XRfHGSxaaQDLkeZtz9-7" target="n9XRfHGSxaaQDLkeZtz9-6">
          <mxGeometry relative="1" as="geometry" />
        </mxCell>
        <mxCell id="n9XRfHGSxaaQDLkeZtz9-39" value="có" style="edgeLabel;html=1;align=center;verticalAlign=middle;resizable=0;points=[];" vertex="1" connectable="0" parent="n9XRfHGSxaaQDLkeZtz9-15">
          <mxGeometry x="-0.4489" y="-2" relative="1" as="geometry">
            <mxPoint as="offset" />
          </mxGeometry>
        </mxCell>
        <mxCell id="n9XRfHGSxaaQDLkeZtz9-16" style="edgeStyle=orthogonalEdgeStyle;rounded=0;orthogonalLoop=1;jettySize=auto;html=1;exitX=1;exitY=0.5;exitDx=0;exitDy=0;entryX=0.5;entryY=0;entryDx=0;entryDy=0;" edge="1" parent="1" source="n9XRfHGSxaaQDLkeZtz9-7" target="n9XRfHGSxaaQDLkeZtz9-9">
          <mxGeometry relative="1" as="geometry" />
        </mxCell>
        <mxCell id="n9XRfHGSxaaQDLkeZtz9-40" value="không" style="edgeLabel;html=1;align=center;verticalAlign=middle;resizable=0;points=[];" vertex="1" connectable="0" parent="n9XRfHGSxaaQDLkeZtz9-16">
          <mxGeometry x="-0.4444" relative="1" as="geometry">
            <mxPoint as="offset" />
          </mxGeometry>
        </mxCell>
        <mxCell id="n9XRfHGSxaaQDLkeZtz9-7" value="op có phải - không ?" style="rhombus;whiteSpace=wrap;html=1;" vertex="1" parent="1">
          <mxGeometry x="480" y="350" width="120" height="80" as="geometry" />
        </mxCell>
        <mxCell id="n9XRfHGSxaaQDLkeZtz9-17" style="edgeStyle=orthogonalEdgeStyle;rounded=0;orthogonalLoop=1;jettySize=auto;html=1;exitX=0;exitY=0.5;exitDx=0;exitDy=0;entryX=0.5;entryY=0;entryDx=0;entryDy=0;" edge="1" parent="1" source="n9XRfHGSxaaQDLkeZtz9-9" target="n9XRfHGSxaaQDLkeZtz9-10">
          <mxGeometry relative="1" as="geometry" />
        </mxCell>
        <mxCell id="n9XRfHGSxaaQDLkeZtz9-41" value="có" style="edgeLabel;html=1;align=center;verticalAlign=middle;resizable=0;points=[];" vertex="1" connectable="0" parent="n9XRfHGSxaaQDLkeZtz9-17">
          <mxGeometry x="-0.1667" y="1" relative="1" as="geometry">
            <mxPoint as="offset" />
          </mxGeometry>
        </mxCell>
        <mxCell id="n9XRfHGSxaaQDLkeZtz9-19" style="edgeStyle=orthogonalEdgeStyle;rounded=0;orthogonalLoop=1;jettySize=auto;html=1;exitX=1;exitY=0.5;exitDx=0;exitDy=0;entryX=0.5;entryY=0;entryDx=0;entryDy=0;" edge="1" parent="1" source="n9XRfHGSxaaQDLkeZtz9-9" target="n9XRfHGSxaaQDLkeZtz9-18">
          <mxGeometry relative="1" as="geometry" />
        </mxCell>
        <mxCell id="n9XRfHGSxaaQDLkeZtz9-42" value="không" style="edgeLabel;html=1;align=center;verticalAlign=middle;resizable=0;points=[];" vertex="1" connectable="0" parent="n9XRfHGSxaaQDLkeZtz9-19">
          <mxGeometry x="-0.2524" relative="1" as="geometry">
            <mxPoint as="offset" />
          </mxGeometry>
        </mxCell>
        <mxCell id="n9XRfHGSxaaQDLkeZtz9-9" value="op có phải * không ?" style="rhombus;whiteSpace=wrap;html=1;" vertex="1" parent="1">
          <mxGeometry x="640" y="440" width="120" height="80" as="geometry" />
        </mxCell>
        <mxCell id="n9XRfHGSxaaQDLkeZtz9-30" style="edgeStyle=orthogonalEdgeStyle;rounded=0;orthogonalLoop=1;jettySize=auto;html=1;exitX=0.5;exitY=1;exitDx=0;exitDy=0;entryX=0;entryY=0;entryDx=0;entryDy=0;" edge="1" parent="1" source="n9XRfHGSxaaQDLkeZtz9-10" target="n9XRfHGSxaaQDLkeZtz9-26">
          <mxGeometry relative="1" as="geometry" />
        </mxCell>
        <mxCell id="n9XRfHGSxaaQDLkeZtz9-10" value="number 1 * number 2" style="rounded=0;whiteSpace=wrap;html=1;" vertex="1" parent="1">
          <mxGeometry x="480" y="520" width="120" height="60" as="geometry" />
        </mxCell>
        <mxCell id="n9XRfHGSxaaQDLkeZtz9-24" style="edgeStyle=orthogonalEdgeStyle;rounded=0;orthogonalLoop=1;jettySize=auto;html=1;exitX=1;exitY=0.5;exitDx=0;exitDy=0;entryX=0.5;entryY=0;entryDx=0;entryDy=0;" edge="1" parent="1" source="n9XRfHGSxaaQDLkeZtz9-18" target="n9XRfHGSxaaQDLkeZtz9-20">
          <mxGeometry relative="1" as="geometry" />
        </mxCell>
        <mxCell id="n9XRfHGSxaaQDLkeZtz9-43" value="có" style="edgeLabel;html=1;align=center;verticalAlign=middle;resizable=0;points=[];" vertex="1" connectable="0" parent="n9XRfHGSxaaQDLkeZtz9-24">
          <mxGeometry x="0.42" y="1" relative="1" as="geometry">
            <mxPoint as="offset" />
          </mxGeometry>
        </mxCell>
        <mxCell id="n9XRfHGSxaaQDLkeZtz9-25" style="edgeStyle=orthogonalEdgeStyle;rounded=0;orthogonalLoop=1;jettySize=auto;html=1;exitX=1;exitY=0.5;exitDx=0;exitDy=0;entryX=0.5;entryY=0;entryDx=0;entryDy=0;" edge="1" parent="1" source="n9XRfHGSxaaQDLkeZtz9-18" target="n9XRfHGSxaaQDLkeZtz9-23">
          <mxGeometry relative="1" as="geometry" />
        </mxCell>
        <mxCell id="n9XRfHGSxaaQDLkeZtz9-46" value="không" style="edgeLabel;html=1;align=center;verticalAlign=middle;resizable=0;points=[];" vertex="1" connectable="0" parent="n9XRfHGSxaaQDLkeZtz9-25">
          <mxGeometry x="0.5348" y="5" relative="1" as="geometry">
            <mxPoint as="offset" />
          </mxGeometry>
        </mxCell>
        <mxCell id="n9XRfHGSxaaQDLkeZtz9-18" value="op có phải / không ?" style="rhombus;whiteSpace=wrap;html=1;" vertex="1" parent="1">
          <mxGeometry x="800" y="520" width="120" height="80" as="geometry" />
        </mxCell>
        <mxCell id="n9XRfHGSxaaQDLkeZtz9-31" style="edgeStyle=orthogonalEdgeStyle;rounded=0;orthogonalLoop=1;jettySize=auto;html=1;exitX=0;exitY=0.5;exitDx=0;exitDy=0;entryX=0.5;entryY=0;entryDx=0;entryDy=0;" edge="1" parent="1" source="n9XRfHGSxaaQDLkeZtz9-20" target="n9XRfHGSxaaQDLkeZtz9-21">
          <mxGeometry relative="1" as="geometry" />
        </mxCell>
        <mxCell id="n9XRfHGSxaaQDLkeZtz9-44" value="có" style="edgeLabel;html=1;align=center;verticalAlign=middle;resizable=0;points=[];" vertex="1" connectable="0" parent="n9XRfHGSxaaQDLkeZtz9-31">
          <mxGeometry x="0.1133" y="-3" relative="1" as="geometry">
            <mxPoint as="offset" />
          </mxGeometry>
        </mxCell>
        <mxCell id="n9XRfHGSxaaQDLkeZtz9-32" style="edgeStyle=orthogonalEdgeStyle;rounded=0;orthogonalLoop=1;jettySize=auto;html=1;exitX=1;exitY=0.5;exitDx=0;exitDy=0;" edge="1" parent="1" source="n9XRfHGSxaaQDLkeZtz9-20" target="n9XRfHGSxaaQDLkeZtz9-22">
          <mxGeometry relative="1" as="geometry" />
        </mxCell>
        <mxCell id="n9XRfHGSxaaQDLkeZtz9-45" value="không" style="edgeLabel;html=1;align=center;verticalAlign=middle;resizable=0;points=[];" vertex="1" connectable="0" parent="n9XRfHGSxaaQDLkeZtz9-32">
          <mxGeometry x="0.1933" relative="1" as="geometry">
            <mxPoint as="offset" />
          </mxGeometry>
        </mxCell>
        <mxCell id="n9XRfHGSxaaQDLkeZtz9-20" value="number 2=0?" style="rhombus;whiteSpace=wrap;html=1;" vertex="1" parent="1">
          <mxGeometry x="920" y="600" width="120" height="80" as="geometry" />
        </mxCell>
        <mxCell id="n9XRfHGSxaaQDLkeZtz9-21" value="lỗi" style="shape=parallelogram;perimeter=parallelogramPerimeter;whiteSpace=wrap;html=1;fixedSize=1;" vertex="1" parent="1">
          <mxGeometry x="840" y="720" width="120" height="60" as="geometry" />
        </mxCell>
        <mxCell id="n9XRfHGSxaaQDLkeZtz9-22" value="number 1 / number 2" style="rounded=0;whiteSpace=wrap;html=1;" vertex="1" parent="1">
          <mxGeometry x="1000" y="720" width="120" height="60" as="geometry" />
        </mxCell>
        <mxCell id="n9XRfHGSxaaQDLkeZtz9-23" value="phép tính ko hợp lệ" style="shape=parallelogram;perimeter=parallelogramPerimeter;whiteSpace=wrap;html=1;fixedSize=1;" vertex="1" parent="1">
          <mxGeometry x="1160" y="720" width="140" height="60" as="geometry" />
        </mxCell>
        <mxCell id="n9XRfHGSxaaQDLkeZtz9-36" style="edgeStyle=orthogonalEdgeStyle;rounded=0;orthogonalLoop=1;jettySize=auto;html=1;exitX=0.5;exitY=1;exitDx=0;exitDy=0;entryX=0;entryY=0.5;entryDx=0;entryDy=0;" edge="1" parent="1" source="n9XRfHGSxaaQDLkeZtz9-26" target="n9XRfHGSxaaQDLkeZtz9-35">
          <mxGeometry relative="1" as="geometry" />
        </mxCell>
        <mxCell id="n9XRfHGSxaaQDLkeZtz9-26" value="xuất kết quả" style="shape=parallelogram;perimeter=parallelogramPerimeter;whiteSpace=wrap;html=1;fixedSize=1;" vertex="1" parent="1">
          <mxGeometry x="570" y="810" width="120" height="60" as="geometry" />
        </mxCell>
        <mxCell id="n9XRfHGSxaaQDLkeZtz9-29" value="" style="endArrow=classic;html=1;rounded=0;exitX=0.25;exitY=1;exitDx=0;exitDy=0;entryX=0;entryY=0.75;entryDx=0;entryDy=0;" edge="1" parent="1" source="n9XRfHGSxaaQDLkeZtz9-6" target="n9XRfHGSxaaQDLkeZtz9-26">
          <mxGeometry width="50" height="50" relative="1" as="geometry">
            <mxPoint x="330" y="680" as="sourcePoint" />
            <mxPoint x="380" y="630" as="targetPoint" />
          </mxGeometry>
        </mxCell>
        <mxCell id="n9XRfHGSxaaQDLkeZtz9-34" style="edgeStyle=orthogonalEdgeStyle;rounded=0;orthogonalLoop=1;jettySize=auto;html=1;exitX=1;exitY=1;exitDx=0;exitDy=0;entryX=0.844;entryY=0.994;entryDx=0;entryDy=0;entryPerimeter=0;" edge="1" parent="1" source="n9XRfHGSxaaQDLkeZtz9-22" target="n9XRfHGSxaaQDLkeZtz9-26">
          <mxGeometry relative="1" as="geometry" />
        </mxCell>
        <mxCell id="n9XRfHGSxaaQDLkeZtz9-35" value="kết thúc" style="ellipse;whiteSpace=wrap;html=1;" vertex="1" parent="1">
          <mxGeometry x="720" y="960" width="120" height="80" as="geometry" />
        </mxCell>
      </root>
    </mxGraphModel>
  </diagram>
</mxfile>
